HIERARCHY
ROOT Hips
{
  OFFSET 0 89.5177 0.535
  CHANNELS 6 Xposition Yposition Zposition Zrotation Xrotation Yrotation
  JOINT Spine
  {
    OFFSET 12.0259 -0.162855 1.69034e-005
    CHANNELS 3 Zrotation Xrotation Yrotation
    JOINT Spine1
    {
      OFFSET 15.3169 -0.0121922 0
      CHANNELS 3 Zrotation Xrotation Yrotation
      JOINT Spine2
      {
        OFFSET 15.3176 -0.0121908 0
        CHANNELS 3 Zrotation Xrotation Yrotation
        JOINT Neck
        {
          OFFSET 19.9142 1.56338 0
          CHANNELS 3 Zrotation Xrotation Yrotation
          JOINT Head
          {
            OFFSET 6.92651 0 0
            CHANNELS 3 Zrotation Xrotation Yrotation
            End Site
            {
              OFFSET 20.7666 0 0
            }
          }
          JOINT LeftShoulder
          {
            OFFSET -6.20654 0.708824 7.28219
            CHANNELS 3 Zrotation Xrotation Yrotation
            JOINT LeftArm
            {
              OFFSET 14.108 0 -1.52588e-005
              CHANNELS 3 Zrotation Xrotation Yrotation
              JOINT LeftForeArm
              {
                OFFSET 28.5802 0 0
                CHANNELS 3 Zrotation Xrotation Yrotation
                JOINT LeftHand
                {
                  OFFSET 27.092 0 0
                  CHANNELS 3 Zrotation Xrotation Yrotation
                  End Site
                  {
                    OFFSET 9.55928 -0.186424 0.145352
                  }
                }
              }
            }
          }
          JOINT RightShoulder
          {
            OFFSET -6.20654 0.708866 -7.28218
            CHANNELS 3 Zrotation Xrotation Yrotation
            JOINT RightArm
            {
              OFFSET 14.108 0 1.52588e-005
              CHANNELS 3 Zrotation Xrotation Yrotation
              JOINT RightForeArm
              {
                OFFSET 28.5802 0 0
                CHANNELS 3 Zrotation Xrotation Yrotation
                JOINT RightHand
                {
                  OFFSET 27.092 0 0
                  CHANNELS 3 Zrotation Xrotation Yrotation
                  End Site
                  {
                    OFFSET 9.55929 -0.186417 -0.145354
                  }
                }
              }
            }
          }
        }
      }
    }
  }
  JOINT LeftUpLeg
  {
    OFFSET 0.005 -0.535 8.837
    CHANNELS 3 Zrotation Xrotation Yrotation
    JOINT LeftLeg
    {
      OFFSET 39.9035 0 0
      CHANNELS 3 Zrotation Xrotation Yrotation
      JOINT LeftFoot
      {
        OFFSET 39.6689 0 0
        CHANNELS 3 Zrotation Xrotation Yrotation
        JOINT LeftToe
        {
          OFFSET 10.1624 13.6296 0
          CHANNELS 3 Zrotation Xrotation Yrotation
          End Site
          {
            OFFSET 8.38147 0 0
          }
        }
      }
    }
  }
  JOINT RightUpLeg
  {
    OFFSET 0.005 -0.535 -8.837
    CHANNELS 3 Zrotation Xrotation Yrotation
    JOINT RightLeg
    {
      OFFSET 39.9035 0 0
      CHANNELS 3 Zrotation Xrotation Yrotation
      JOINT RightFoot
      {
        OFFSET 39.6689 0 0
        CHANNELS 3 Zrotation Xrotation Yrotation
        JOINT RightToe
        {
          OFFSET 10.1624 13.6296 0
          CHANNELS 3 Zrotation Xrotation Yrotation
          End Site
          {
            OFFSET 8.38147 0 0
          }
        }
      }
    }
  }
}
MOTION
Frames:	9
Frame Time:	0.0333333
519.806 77.053 -254.374 136.197 43.1086 -32.6512 2.67882 1.23281 -1.88992 5.3986 2.37574 -3.83652 5.3986 2.37574 -3.83653 -8.31066e-012 -9.0191e-006 -5.27751e-005 -12.2893 1.95178 -5.43824 177.35 8.52757 -72.6644 -0.592647 -38.822 44.5572 -47.0084 -6.36111e-015 -0 -55.1201 -45.6355 -47.7866 178.435 -3.74393 67.3002 -23.0459 15.3522 -71.3707 -38.3933 -3.18055e-015 -0 -50.8267 37.0967 38.5934 -59.8875 -15.6773 -168.226 -49.4514 9.54166e-015 -5.96354e-016 24.0897 7.22933 -20.268 90 2.42657e-020 3.18055e-015 -45.9467 13.5227 154.633 -43.3148 -3.18056e-015 -9.54167e-015 27.2389 0.262303 20.3595 90 3.97569e-016 1.27222e-014 
521.459 76.7239 -254.058 143.048 39.9969 -31.4382 1.81729 1.27903 -3.22199 3.70491 2.4537 -6.48502 3.70491 2.4537 -6.48503 -8.29794e-012 -9.0191e-006 -5.27751e-005 -13.2439 -0.792349 -5.61187 178.26 6.85325 -75.7154 7.36763 -45.9807 47.8104 -55.7037 -7.95139e-016 3.18055e-015 -53.2146 -41.4332 -44.158 179.081 -2.43771 69.3358 -23.9343 9.02506 -69.4812 -49.1395 4.77083e-015 7.95139e-016 -56.0097 36.2254 43.4375 -66.8489 -10.3979 -172.187 -49.5088 3.18055e-015 -2.78299e-015 23.1055 5.21332 -19.0534 90 6.06643e-021 -0 -53.3887 17.9618 149.867 -46.0737 -3.18056e-015 -3.18056e-015 26.8133 0.715904 20.4684 90 1.59028e-015 -0 
521.739 77.0422 -253.696 143.819 38.3505 -31.566 1.6421 1.86223 -3.38265 3.39389 3.62394 -6.8223 3.39389 3.62394 -6.82231 -8.3043e-012 -9.0191e-006 -5.27751e-005 -12.624 -3.46608 -5.48788 178.873 4.72933 -76.5781 12.0587 -53.0414 48.2702 -60.1023 3.57812e-015 1.98785e-015 -52.4143 -52.0812 -47.4014 179.339 -1.90773 70.8969 -20.847 4.01682 -67.9305 -56.0081 -1.59028e-015 1.19271e-015 -57.9268 36.8374 46.5646 -67.7914 -9.18023 -171.526 -49.202 9.54166e-015 7.95139e-016 23.077 5.4194 -18.6234 90 -6.06643e-021 -3.18055e-015 -54.9001 18.8525 150.77 -45.8205 3.18056e-015 -0 26.1946 1.55033 18.2548 90 1.59028e-015 3.18055e-015 
520.425 77.9777 -253.008 139.523 41.732 -35.7148 2.42665 2.19842 -1.90058 4.93023 4.31355 -3.89668 4.93023 4.31355 -3.89669 -8.31384e-012 -9.0191e-006 -5.27751e-005 -11.5806 -4.50372 -5.83977 179.291 3.19454 -77.4735 9.63811 -58.3925 43.7763 -55.3597 -2.88238e-015 7.95139e-016 -52.9904 -57.7019 -49.5644 179.699 -0.904799 71.6085 -18.3465 0.823633 -65.8429 -59.2783 2.38542e-015 -7.95139e-016 -60.2151 39.727 51.3078 -62.6179 -13.2958 -168.301 -48.7471 6.36111e-015 9.14409e-015 23.0457 7.66871 -18.5502 90 -2.42657e-020 -3.18055e-015 -48.1742 11.4761 155.219 -42.4825 3.18056e-015 -6.36111e-015 25.5361 3.25393 14.3972 90 -2.38542e-015 1.59028e-014 
520.463 78.44 -252.906 141.3 41.62 -36.9667 2.27758 2.1905 -1.98288 4.63461 4.29953 -4.05552 4.63461 4.29953 -4.05553 -8.29794e-012 -9.0191e-006 -5.27751e-005 -11.9931 -4.8118 -4.46883 179.341 3.64017 -79.7333 13.4676 -60.6923 46.3891 -53.927 7.7526e-015 -7.95139e-016 -55.1879 -58.0579 -51.5914 179.848 -0.464836 71.8749 -16.1508 -0.21391 -64.3525 -60.4868 -2.38542e-015 3.97569e-016 -60.6801 40.2688 52.4599 -63.4667 -12.3123 -168.626 -47.2698 -3.18055e-015 -3.18055e-015 22.0677 8.51437 -18.159 90 0 -9.54166e-015 -50.2062 6.96262 153.871 -40.7462 -1.59028e-014 -3.18056e-015 23.4015 2.07145 16.5193 90 0 -3.18055e-015 
520.428 78.7983 -252.966 142.829 41.5847 -39.0854 2.326 2.00905 -1.98647 4.72451 3.935 -4.0564 4.72451 3.935 -4.05641 -8.31066e-012 -9.0191e-006 -5.27751e-005 -14.546 -5.25829 -2.7435 179.397 3.50074 -80.2197 15.917 -60.7402 49.9581 -60.0738 1.39149e-015 1.59028e-015 -55.8881 -61.1319 -53.3452 179.69 -0.927013 71.5116 -14.6069 -0.00925288 -62.7932 -62.4462 7.95139e-016 -3.97569e-016 -62.1454 40.007 54.2164 -64.7685 -11.2749 -168.121 -46.4787 3.18055e-015 3.97569e-015 20.8432 9.39694 -17.7066 90 -6.06643e-021 6.36111e-015 -53.2765 2.38234 153.863 -41.6776 0 3.18056e-015 22.1075 2.23128 14.7438 90 1.59028e-015 3.18055e-015 
520.359 78.899 -253.14 143.306 41.0455 -40.6661 2.48287 1.83626 -1.87252 5.02819 3.58912 -3.82559 5.02819 3.58912 -3.8256 -8.31066e-012 -9.0191e-006 -5.27751e-005 -16.6734 -5.31936 -2.89859 179.291 3.75928 -79.3162 17.8922 -59.6034 54.8087 -69.3708 6.85807e-015 -3.97569e-016 -51.9449 -60.2172 -49.124 179.464 -1.59618 71.4357 -13.7349 1.81824 -61.979 -64.148 0 -1.19271e-015 -62.7329 40.5101 55.0828 -66.4816 -9.3973 -166.551 -46.9473 3.18055e-015 1.59028e-015 19.5282 8.93965 -17.0787 90 1.21329e-020 -0 -56.6217 -0.827845 154.829 -44.1637 -3.18056e-015 6.36111e-015 21.5554 2.97037 10.9816 90 0 3.18055e-015 
521.491 78.3509 -254.044 147.312 36.5253 -37.7049 1.74957 1.67472 -3.16468 3.59119 3.24992 -6.38277 3.59119 3.24992 -6.38278 -8.30748e-012 -9.0191e-006 -5.27751e-005 -17.7682 -4.70582 -2.41996 178.869 5.69768 -78.7511 17.3357 -56.0797 57.8936 -77.7144 6.5102e-015 -1.59028e-015 -48.1743 -56.3206 -44.2336 179.426 -1.65999 70.9347 -14.1739 4.74896 -61.3685 -65.3055 7.95139e-016 -3.97569e-016 -63.4572 41.339 56.7717 -72.4121 -3.63759 -167.282 -47.0845 -1.27222e-014 -1.11319e-014 18.5916 7.48331 -16.7432 90 -6.06643e-021 -9.54166e-015 -66.324 5.19793 153.221 -47.5215 6.36111e-015 -0 20.8776 1.17694 12.7691 90 2.38542e-015 3.18055e-015 
520.676 78.1358 -254.411 145.353 37.735 -39.9286 2.27796 1.47446 -2.51949 4.62072 2.84664 -5.09784 4.62072 2.84664 -5.09785 -8.31384e-012 -9.0191e-006 -5.27751e-005 -19.2438 -3.80771 -1.89255 178.317 7.91009 -77.9473 9.14965 -50.5432 55.3185 -79.4544 7.95139e-016 -1.59028e-015 -49.853 -49.4214 -43.3697 179.219 -2.19813 70.4388 -15.3113 8.39867 -60.8932 -65.2358 -1.59028e-015 -0 -62.5522 42.2852 55.9504 -71.7553 -5.26202 -164.802 -48.3921 0 2.38542e-015 18.9167 9.63505 -17.1338 90 -1.21329e-020 6.36111e-015 -64.0663 3.78508 156.097 -45.9657 -3.18056e-015 6.36111e-015 20.8288 -0.978243 17.2062 90 -3.97569e-016 -6.36111e-015 
